<svg xmlns="http://www.w3.org/2000/svg" xmlns:xlink="http://www.w3.org/1999/xlink">
  <symbol id="icon-github" viewBox="0 0 24 24">
    <title>github</title>
    <path d="M22.5 8.5c0-1.5-0.5-2.8-1.4-4 0.3-1.3 0.2-2.7-0.3-3.9-0.1-0.3-0.3-0.5-0.6-0.6-0.4-0.1-1.7-0.3-4.4 1.4-2.2-0.5-4.5-0.5-6.6 0-2.7-1.7-4-1.5-4.4-1.4-0.3 0.1-0.5 0.3-0.6 0.6-0.6 1.3-0.7 2.6-0.3 3.9-0.9 1.2-1.4 2.6-1.4 4 0 5.4 3 7.1 5.8 7.7-0.2 0.7-0.3 1.3-0.3 1.9v0.1c-2.1 0.4-2.8-0.4-3.6-1.5-0.5-0.7-1.1-1.5-2.2-1.7-0.5-0.1-1.1 0.2-1.2 0.7s0.2 1.1 0.7 1.2c0.3 0.1 0.7 0.5 1.1 1 0.9 1.2 2.2 2.8 5.2 2.4v1.7c0 0.6 0.4 1 1 1s1-0.4 1-1v-2.9c0 0 0-0.1 0-0.1v-0.9c0-0.7 0.2-1.3 0.7-1.8 0.3-0.3 0.4-0.7 0.2-1-0.1-0.4-0.4-0.6-0.8-0.7-2.9-0.4-5.6-1.3-5.6-6 0-1.2 0.4-2.2 1.2-3.1 0.3-0.3 0.3-0.7 0.2-1-0.3-0.9-0.3-1.7-0.1-2.5 0.5 0.1 1.4 0.4 2.6 1.3 0.3 0.2 0.6 0.2 0.9 0.1 2.1-0.6 4.4-0.6 6.5 0 0.3 0.1 0.6 0 0.8-0.1 1.3-0.9 2.2-1.2 2.6-1.3 0.2 0.8 0.2 1.6-0.1 2.4-0.1 0.4-0.1 0.8 0.2 1 0.8 0.8 1.2 1.9 1.2 3.1 0 4.7-2.7 5.7-5.6 6-0.4 0-0.7 0.3-0.8 0.7s0 0.8 0.2 1c0.5 0.5 0.7 1.2 0.7 1.9v3.9c0 0.6 0.4 1 1 1s1-0.4 1-1v-3.8c0.1-0.7 0-1.3-0.3-1.9 2.4-0.5 5.8-2.1 5.8-7.8z"></path>
  </symbol>
  <symbol id="icon-instagram" viewBox="0 0 24 28">
    <title>instagram</title>
    <path d="M16 14c0-2.203-1.797-4-4-4s-4 1.797-4 4 1.797 4 4 4 4-1.797 4-4zM18.156 14c0 3.406-2.75 6.156-6.156 6.156s-6.156-2.75-6.156-6.156 2.75-6.156 6.156-6.156 6.156 2.75 6.156 6.156zM19.844 7.594c0 0.797-0.641 1.437-1.437 1.437s-1.437-0.641-1.437-1.437 0.641-1.437 1.437-1.437 1.437 0.641 1.437 1.437zM12 4.156c-1.75 0-5.5-0.141-7.078 0.484-0.547 0.219-0.953 0.484-1.375 0.906s-0.688 0.828-0.906 1.375c-0.625 1.578-0.484 5.328-0.484 7.078s-0.141 5.5 0.484 7.078c0.219 0.547 0.484 0.953 0.906 1.375s0.828 0.688 1.375 0.906c1.578 0.625 5.328 0.484 7.078 0.484s5.5 0.141 7.078-0.484c0.547-0.219 0.953-0.484 1.375-0.906s0.688-0.828 0.906-1.375c0.625-1.578 0.484-5.328 0.484-7.078s0.141-5.5-0.484-7.078c-0.219-0.547-0.484-0.953-0.906-1.375s-0.828-0.688-1.375-0.906c-1.578-0.625-5.328-0.484-7.078-0.484zM24 14c0 1.656 0.016 3.297-0.078 4.953-0.094 1.922-0.531 3.625-1.937 5.031s-3.109 1.844-5.031 1.937c-1.656 0.094-3.297 0.078-4.953 0.078s-3.297 0.016-4.953-0.078c-1.922-0.094-3.625-0.531-5.031-1.937s-1.844-3.109-1.937-5.031c-0.094-1.656-0.078-3.297-0.078-4.953s-0.016-3.297 0.078-4.953c0.094-1.922 0.531-3.625 1.937-5.031s3.109-1.844 5.031-1.937c1.656-0.094 3.297-0.078 4.953-0.078s3.297-0.016 4.953 0.078c1.922 0.094 3.625 0.531 5.031 1.937s1.844 3.109 1.937 5.031c0.094 1.656 0.078 3.297 0.078 4.953z"></path>
  </symbol>
  <symbol id="icon-youtube" viewBox="0 0 32 32">
    <title>youtube</title>
    <path d="M31.681 9.6c0 0-0.313-2.206-1.275-3.175-1.219-1.275-2.581-1.281-3.206-1.356-4.475-0.325-11.194-0.325-11.194-0.325h-0.012c0 0-6.719 0-11.194 0.325-0.625 0.075-1.987 0.081-3.206 1.356-0.963 0.969-1.269 3.175-1.269 3.175s-0.319 2.588-0.319 5.181v2.425c0 2.587 0.319 5.181 0.319 5.181s0.313 2.206 1.269 3.175c1.219 1.275 2.819 1.231 3.531 1.369 2.563 0.244 10.881 0.319 10.881 0.319s6.725-0.012 11.2-0.331c0.625-0.075 1.988-0.081 3.206-1.356 0.962-0.969 1.275-3.175 1.275-3.175s0.319-2.587 0.319-5.181v-2.425c-0.006-2.588-0.325-5.181-0.325-5.181zM12.694 20.15v-8.994l8.644 4.513-8.644 4.481z"></path>
  </symbol>
  <symbol id="icon-facebook" viewBox="0 0 32 32">
    <title>facebook</title>
    <path d="M19 6h5v-6h-5c-3.86 0-7 3.14-7 7v3h-4v6h4v16h6v-16h5l1-6h-6v-3c0-0.542 0.458-1 1-1z"></path>
  </symbol>
  <symbol id="icon-meetup" viewBox="0 0 30 28">
    <title>meetup</title>
    <path d="M20.844 19.281c-0.172-1.125-2.234-0.25-2.359-1.484-0.172-1.75 2.391-5.531 2.188-7-0.187-1.313-1.062-1.594-1.828-1.609-0.734-0.016-0.922 0.109-1.172 0.25-0.156 0.094-0.359 0.266-0.641-0.016-0.344-0.328-0.609-0.641-1.062-0.703-0.672-0.109-0.969 0.109-1.453 0.531-0.187 0.156-0.656 0.703-1.094 0.5-0.187-0.094-0.844-0.422-1.313-0.625-0.891-0.391-2.188 0.25-2.656 1.094-0.703 1.25-2.078 6.188-2.281 6.844-0.469 1.453 0.594 2.656 2.016 2.578 0.609-0.031 1-0.25 1.391-0.953 0.219-0.406 2.281-5.891 2.438-6.156 0.109-0.187 0.484-0.438 0.797-0.281 0.313 0.172 0.375 0.516 0.328 0.828-0.063 0.531-1.531 3.875-1.578 4.25-0.187 1.25 1.469 1.453 2.109 0.219 0.203-0.391 2.5-5.063 2.703-5.375 0.234-0.344 0.406-0.453 0.641-0.438 0.172 0 0.453 0.047 0.391 0.594-0.078 0.516-1.922 3.953-2.125 4.797-0.25 1.125 0.359 2.266 1.359 2.766 0.625 0.313 3.422 0.859 3.203-0.609zM5.984 22.656c0.063 0.313-0.125 0.609-0.438 0.672-0.297 0.063-0.594-0.125-0.656-0.438-0.063-0.297 0.125-0.609 0.422-0.672s0.609 0.125 0.672 0.438zM14.891 26.766c0.25 0.359 0.156 0.844-0.187 1.094-0.359 0.25-0.844 0.156-1.094-0.203-0.234-0.359-0.141-0.844 0.203-1.094 0.359-0.25 0.844-0.156 1.078 0.203zM2.766 14.078c-0.375 0.562-1.125 0.703-1.672 0.313-0.547-0.375-0.688-1.141-0.313-1.687 0.375-0.562 1.125-0.703 1.672-0.328 0.547 0.391 0.688 1.141 0.313 1.703zM22.922 24.656c0.391 0.578 0.25 1.375-0.328 1.781-0.578 0.391-1.359 0.25-1.75-0.328s-0.25-1.375 0.313-1.781c0.578-0.406 1.359-0.25 1.766 0.328zM24.672 15.219c1.437 2.359 0.828 5.469-1.437 7.063-0.953 0.672-2.031 0.969-3.109 0.938-0.656 2.578-3.797 3.531-5.75 1.781-0.063 0.047-0.141 0.094-0.203 0.156-2.141 1.484-5.047 0.953-6.531-1.219-0.531-0.781-0.797-1.672-0.828-2.562-3.578-0.594-4.922-5.141-2.25-7.641-1.547-2.562 0.031-5.875 2.922-6.281 1.375-3.625 5.891-5.344 8.953-2.969 3.687-1.219 7.453 1.609 7.156 5.531 2.25 0.688 2.891 3.656 1.078 5.203zM7.109 4.906c0.281 0.422 0.187 1-0.234 1.297-0.406 0.281-0.984 0.187-1.266-0.234s-0.187-1 0.234-1.297c0.406-0.281 0.984-0.187 1.266 0.234zM9.594 0.516c0.078 0.344-0.141 0.688-0.484 0.766s-0.688-0.141-0.766-0.5c-0.063-0.344 0.156-0.688 0.5-0.766s0.688 0.141 0.75 0.5zM28.125 15.328c0.094 0.422-0.172 0.828-0.578 0.906-0.406 0.094-0.812-0.172-0.891-0.578-0.094-0.422 0.172-0.828 0.578-0.922 0.406-0.078 0.812 0.187 0.891 0.594zM17.75 1.375c0.328 0.562 0.156 1.312-0.422 1.656-0.562 0.344-1.297 0.156-1.625-0.406-0.344-0.578-0.156-1.328 0.406-1.672s1.297-0.156 1.641 0.422zM29.406 11.625c0.078 0.313-0.125 0.609-0.422 0.688-0.313 0.063-0.609-0.141-0.672-0.438-0.063-0.313 0.125-0.625 0.438-0.688 0.297-0.063 0.594 0.125 0.656 0.438zM26.422 7.859c0.313 0.469 0.203 1.109-0.25 1.437-0.469 0.313-1.109 0.203-1.422-0.266s-0.203-1.109 0.266-1.437c0.453-0.328 1.094-0.203 1.406 0.266z"></path>
  </symbol>
</svg>