<svg xmlns="http://www.w3.org/2000/svg" xmlns:xlink="http://www.w3.org/1999/xlink">
  <symbol id="icon-room" viewBox="0 0 24 24">
    <title>room</title>
    <path d="M12 11.484c1.359 0 2.484-1.125 2.484-2.484s-1.125-2.484-2.484-2.484-2.484 1.125-2.484 2.484 1.125 2.484 2.484 2.484zM12 2.016c3.891 0 6.984 3.094 6.984 6.984 0 5.25-6.984 12.984-6.984 12.984s-6.984-7.734-6.984-12.984c0-3.891 3.094-6.984 6.984-6.984z"></path>
  </symbol>
  <symbol id="icon-calendar" viewBox="0 0 34 32">
    <title>calendar</title>
    <path d="M34 30.5v-19c0-0.276-0.224-0.5-0.5-0.5s-0.5 0.224-0.5 0.5v19c0 0.276-0.224 0.5-0.5 0.5h-31c-0.276 0-0.5-0.224-0.5-0.5v-19c0-0.276-0.224-0.5-0.5-0.5s-0.5 0.224-0.5 0.5v19c0 0.827 0.673 1.5 1.5 1.5h31c0.827 0 1.5-0.673 1.5-1.5zM4.5 23c-0.276 0-0.5 0.224-0.5 0.5s0.224 0.5 0.5 0.5h1.5v3.5c0 0.276 0.224 0.5 0.5 0.5s0.5-0.224 0.5-0.5v-3.5h6v3.5c0 0.276 0.224 0.5 0.5 0.5s0.5-0.224 0.5-0.5v-3.5h6v3.5c0 0.276 0.224 0.5 0.5 0.5s0.5-0.224 0.5-0.5v-3.5h6v3.5c0 0.276 0.224 0.5 0.5 0.5s0.5-0.224 0.5-0.5v-3.5h1.5c0.276 0 0.5-0.224 0.5-0.5s-0.224-0.5-0.5-0.5h-1.5v-5h1.5c0.276 0 0.5-0.224 0.5-0.5s-0.224-0.5-0.5-0.5h-1.5v-4.5c0-0.276-0.224-0.5-0.5-0.5s-0.5 0.224-0.5 0.5v4.5h-6v-4.5c0-0.276-0.224-0.5-0.5-0.5s-0.5 0.224-0.5 0.5v4.5h-6v-4.5c0-0.276-0.224-0.5-0.5-0.5s-0.5 0.224-0.5 0.5v4.5h-6v-4.5c0-0.276-0.224-0.5-0.5-0.5s-0.5 0.224-0.5 0.5v4.5h-1.5c-0.276 0-0.5 0.224-0.5 0.5s0.224 0.5 0.5 0.5h1.5v5h-1.5zM27 18v5h-6v-5h6zM20 18v5h-6v-5h6zM7 18h6v5h-6v-5zM28.5 3h4.25c0.087 0 0.25 0 0.25 0.5v4.5h-32v-4.5c0-0.276 0.224-0.5 0.5-0.5h4c0.276 0 0.5-0.224 0.5-0.5s-0.224-0.5-0.5-0.5h-4c-0.827 0-1.5 0.673-1.5 1.5v5c0 0.276 0.224 0.5 0.5 0.5h33c0.276 0 0.5-0.224 0.5-0.5v-5c0-1.106-0.646-1.5-1.25-1.5h-4.25c-0.276 0-0.5 0.224-0.5 0.5s0.224 0.5 0.5 0.5zM22.5 3c0.276 0 0.5-0.224 0.5-0.5s-0.224-0.5-0.5-0.5h-11c-0.276 0-0.5 0.224-0.5 0.5s0.224 0.5 0.5 0.5h11zM9 4.5v-4c0-0.276-0.224-0.5-0.5-0.5s-0.5 0.224-0.5 0.5v4c0 0.276 0.224 0.5 0.5 0.5s0.5-0.224 0.5-0.5zM25.5 5c0.276 0 0.5-0.224 0.5-0.5v-4c0-0.276-0.224-0.5-0.5-0.5s-0.5 0.224-0.5 0.5v4c0 0.276 0.224 0.5 0.5 0.5z"></path>
  </symbol>
  <symbol id="icon-mic" viewBox="0 0 15 32">
    <title>mic</title>
    <path d="M7 24.007v3.993h-2.966c-1.141 0-2 0.859-2 2v1.5c0 0.276 0.224 0.5 0.5 0.5h10c0.276 0 0.5-0.224 0.5-0.5v-1.425c0-1.164-0.879-2.075-2-2.075h-3.034v-3.993c3.973-0.278 7.068-3.56 7.068-7.564v-1.887c0-0.295-0.239-0.534-0.534-0.534s-0.534 0.24-0.534 0.535v1.887c0 3.597-2.9 6.522-6.466 6.522s-6.466-2.926-6.466-6.522v-1.887c0-0.295-0.239-0.534-0.534-0.534s-0.534 0.239-0.534 0.534v1.887c0 4.003 3.095 7.285 7 7.563zM12.034 30.075v0.925h-9v-1c0-0.589 0.411-1 1-1h7c0.57 0 1 0.462 1 1.075zM7.534-0.034c-2.5 0-4.534 2.059-4.534 4.591v11.887c0 2.531 2.034 4.591 4.534 4.591s4.534-2.060 4.466-4.591v-11.887c0.068-2.532-1.966-4.591-4.466-4.591zM11 16.443c0 1.942-1.555 3.522-3.466 3.522s-3.534-1.579-3.534-3.522v-11.886c0-1.942 1.623-3.522 3.534-3.522s3.466 1.579 3.466 3.522v11.886z"></path>
  </symbol>
  <symbol id="icon-github" viewBox="0 0 24 24">
    <title>github</title>
    <path d="M22.5 8.5c0-1.5-0.5-2.8-1.4-4 0.3-1.3 0.2-2.7-0.3-3.9-0.1-0.3-0.3-0.5-0.6-0.6-0.4-0.1-1.7-0.3-4.4 1.4-2.2-0.5-4.5-0.5-6.6 0-2.7-1.7-4-1.5-4.4-1.4-0.3 0.1-0.5 0.3-0.6 0.6-0.6 1.3-0.7 2.6-0.3 3.9-0.9 1.2-1.4 2.6-1.4 4 0 5.4 3 7.1 5.8 7.7-0.2 0.7-0.3 1.3-0.3 1.9v0.1c-2.1 0.4-2.8-0.4-3.6-1.5-0.5-0.7-1.1-1.5-2.2-1.7-0.5-0.1-1.1 0.2-1.2 0.7s0.2 1.1 0.7 1.2c0.3 0.1 0.7 0.5 1.1 1 0.9 1.2 2.2 2.8 5.2 2.4v1.7c0 0.6 0.4 1 1 1s1-0.4 1-1v-2.9c0 0 0-0.1 0-0.1v-0.9c0-0.7 0.2-1.3 0.7-1.8 0.3-0.3 0.4-0.7 0.2-1-0.1-0.4-0.4-0.6-0.8-0.7-2.9-0.4-5.6-1.3-5.6-6 0-1.2 0.4-2.2 1.2-3.1 0.3-0.3 0.3-0.7 0.2-1-0.3-0.9-0.3-1.7-0.1-2.5 0.5 0.1 1.4 0.4 2.6 1.3 0.3 0.2 0.6 0.2 0.9 0.1 2.1-0.6 4.4-0.6 6.5 0 0.3 0.1 0.6 0 0.8-0.1 1.3-0.9 2.2-1.2 2.6-1.3 0.2 0.8 0.2 1.6-0.1 2.4-0.1 0.4-0.1 0.8 0.2 1 0.8 0.8 1.2 1.9 1.2 3.1 0 4.7-2.7 5.7-5.6 6-0.4 0-0.7 0.3-0.8 0.7s0 0.8 0.2 1c0.5 0.5 0.7 1.2 0.7 1.9v3.9c0 0.6 0.4 1 1 1s1-0.4 1-1v-3.8c0.1-0.7 0-1.3-0.3-1.9 2.4-0.5 5.8-2.1 5.8-7.8z"></path>
  </symbol>
  <symbol id="icon-presentation" viewBox="0 0 30 28">
    <title>presentation</title>
    <path d="M28 19.5v-15c0-0.266-0.234-0.5-0.5-0.5h-25c-0.266 0-0.5 0.234-0.5 0.5v15c0 0.266 0.234 0.5 0.5 0.5h25c0.266 0 0.5-0.234 0.5-0.5zM30 4.5v15c0 1.375-1.125 2.5-2.5 2.5h-11.5v2h5.5c0.281 0 0.5 0.219 0.5 0.5v1c0 0.281-0.219 0.5-0.5 0.5h-13c-0.281 0-0.5-0.219-0.5-0.5v-1c0-0.281 0.219-0.5 0.5-0.5h5.5v-2h-11.5c-1.375 0-2.5-1.125-2.5-2.5v-15c0-1.375 1.125-2.5 2.5-2.5h25c1.375 0 2.5 1.125 2.5 2.5z"></path>
  </symbol>
  <symbol id="icon-loupe" viewBox="0 0 24 24">
    <title>loupe</title>
    <path d="M12 20.016c4.406 0 8.016-3.609 8.016-8.016s-3.609-8.016-8.016-8.016-8.016 3.609-8.016 8.016 3.609 8.016 8.016 8.016zM12 2.016c5.531 0 9.984 4.453 9.984 9.984v8.016c0 1.078-0.891 1.969-1.969 1.969h-8.016c-5.531 0-9.984-4.453-9.984-9.984s4.453-9.984 9.984-9.984zM12.984 6.984v4.031h4.031v1.969h-4.031v4.031h-1.969v-4.031h-4.031v-1.969h4.031v-4.031h1.969z"></path>
  </symbol>
  <symbol id="icon-keyboard_arrow_right" viewBox="0 0 24 24">
    <title>keyboard_arrow_right</title>
    <path d="M8.578 16.359l4.594-4.594-4.594-4.594 1.406-1.406 6 6-6 6z"></path>
  </symbol>
  <symbol id="icon-keyboard_arrow_left" viewBox="0 0 24 24">
    <title>keyboard_arrow_left</title>
    <path d="M15.422 16.078l-1.406 1.406-6-6 6-6 1.406 1.406-4.594 4.594z"></path>
  </symbol>
  <symbol id="icon-cancel" viewBox="0 0 32 32">
    <title>cancel</title>
    <path d="M30.721 6.774l-9.197 9.253 9.197 9.198c0.385 0.384 0.385 1.007 0 1.392l-4.176 4.175c-0.383 0.385-1.006 0.385-1.391 0l-9.182-9.182-9.127 9.182c-0.384 0.385-1.007 0.385-1.392 0l-4.175-4.175c-0.384-0.385-0.384-1.008 0-1.392l9.127-9.182-9.126-9.126c-0.384-0.384-0.384-1.007 0-1.392l4.175-4.175c0.384-0.385 1.007-0.385 1.392 0l9.11 9.11 9.199-9.253c0.385-0.385 1.008-0.385 1.391 0l4.176 4.175c0.383 0.385 0.383 1.008-0.001 1.392z"></path>
  </symbol>
  <!-- <symbol id="icon-keyboard_arrow_down" viewBox="0 0 24 24">
    <title>keyboard_arrow_down</title>
    <path d="M7.406 7.828l4.594 4.594 4.594-4.594 1.406 1.406-6 6-6-6z"></path>
  </symbol> -->
  <symbol id="icon-instagram" viewBox="0 0 32 32">
    <title>instagram</title>
    <path d="M16 2.881c4.275 0 4.781 0.019 6.462 0.094 1.563 0.069 2.406 0.331 2.969 0.55 0.744 0.288 1.281 0.638 1.837 1.194 0.563 0.563 0.906 1.094 1.2 1.838 0.219 0.563 0.481 1.412 0.55 2.969 0.075 1.688 0.094 2.194 0.094 6.463s-0.019 4.781-0.094 6.463c-0.069 1.563-0.331 2.406-0.55 2.969-0.288 0.744-0.637 1.281-1.194 1.837-0.563 0.563-1.094 0.906-1.837 1.2-0.563 0.219-1.413 0.481-2.969 0.55-1.688 0.075-2.194 0.094-6.463 0.094s-4.781-0.019-6.463-0.094c-1.563-0.069-2.406-0.331-2.969-0.55-0.744-0.288-1.281-0.637-1.838-1.194-0.563-0.563-0.906-1.094-1.2-1.837-0.219-0.563-0.481-1.413-0.55-2.969-0.075-1.688-0.094-2.194-0.094-6.463s0.019-4.781 0.094-6.463c0.069-1.563 0.331-2.406 0.55-2.969 0.288-0.744 0.638-1.281 1.194-1.838 0.563-0.563 1.094-0.906 1.838-1.2 0.563-0.219 1.412-0.481 2.969-0.55 1.681-0.075 2.188-0.094 6.463-0.094zM16 0c-4.344 0-4.887 0.019-6.594 0.094-1.7 0.075-2.869 0.35-3.881 0.744-1.056 0.412-1.95 0.956-2.837 1.85-0.894 0.888-1.438 1.781-1.85 2.831-0.394 1.019-0.669 2.181-0.744 3.881-0.075 1.713-0.094 2.256-0.094 6.6s0.019 4.887 0.094 6.594c0.075 1.7 0.35 2.869 0.744 3.881 0.413 1.056 0.956 1.95 1.85 2.837 0.887 0.887 1.781 1.438 2.831 1.844 1.019 0.394 2.181 0.669 3.881 0.744 1.706 0.075 2.25 0.094 6.594 0.094s4.888-0.019 6.594-0.094c1.7-0.075 2.869-0.35 3.881-0.744 1.050-0.406 1.944-0.956 2.831-1.844s1.438-1.781 1.844-2.831c0.394-1.019 0.669-2.181 0.744-3.881 0.075-1.706 0.094-2.25 0.094-6.594s-0.019-4.887-0.094-6.594c-0.075-1.7-0.35-2.869-0.744-3.881-0.394-1.063-0.938-1.956-1.831-2.844-0.887-0.887-1.781-1.438-2.831-1.844-1.019-0.394-2.181-0.669-3.881-0.744-1.712-0.081-2.256-0.1-6.6-0.1v0z"></path>
    <path d="M16 7.781c-4.537 0-8.219 3.681-8.219 8.219s3.681 8.219 8.219 8.219 8.219-3.681 8.219-8.219c0-4.537-3.681-8.219-8.219-8.219zM16 21.331c-2.944 0-5.331-2.387-5.331-5.331s2.387-5.331 5.331-5.331c2.944 0 5.331 2.387 5.331 5.331s-2.387 5.331-5.331 5.331z"></path>
    <path d="M26.462 7.456c0 1.060-0.859 1.919-1.919 1.919s-1.919-0.859-1.919-1.919c0-1.060 0.859-1.919 1.919-1.919s1.919 0.859 1.919 1.919z"></path>
  </symbol>
  <symbol id="icon-youtube" viewBox="0 0 32 32">
    <title>youtube</title>
    <path d="M31.681 9.6c0 0-0.313-2.206-1.275-3.175-1.219-1.275-2.581-1.281-3.206-1.356-4.475-0.325-11.194-0.325-11.194-0.325h-0.012c0 0-6.719 0-11.194 0.325-0.625 0.075-1.987 0.081-3.206 1.356-0.963 0.969-1.269 3.175-1.269 3.175s-0.319 2.588-0.319 5.181v2.425c0 2.587 0.319 5.181 0.319 5.181s0.313 2.206 1.269 3.175c1.219 1.275 2.819 1.231 3.531 1.369 2.563 0.244 10.881 0.319 10.881 0.319s6.725-0.012 11.2-0.331c0.625-0.075 1.988-0.081 3.206-1.356 0.962-0.969 1.275-3.175 1.275-3.175s0.319-2.587 0.319-5.181v-2.425c-0.006-2.588-0.325-5.181-0.325-5.181zM12.694 20.15v-8.994l8.644 4.513-8.644 4.481z"></path>
  </symbol>
  <symbol id="icon-facebook" viewBox="0 0 32 32">
    <title>facebook</title>
    <path d="M19 6h5v-6h-5c-3.86 0-7 3.14-7 7v3h-4v6h4v16h6v-16h5l1-6h-6v-3c0-0.542 0.458-1 1-1z"></path>
  </symbol>
  <symbol id="icon-meetup" viewBox="0 0 30 28">
    <title>meetup</title>
    <path d="M20.844 19.281c-0.172-1.125-2.234-0.25-2.359-1.484-0.172-1.75 2.391-5.531 2.188-7-0.187-1.313-1.062-1.594-1.828-1.609-0.734-0.016-0.922 0.109-1.172 0.25-0.156 0.094-0.359 0.266-0.641-0.016-0.344-0.328-0.609-0.641-1.062-0.703-0.672-0.109-0.969 0.109-1.453 0.531-0.187 0.156-0.656 0.703-1.094 0.5-0.187-0.094-0.844-0.422-1.313-0.625-0.891-0.391-2.188 0.25-2.656 1.094-0.703 1.25-2.078 6.188-2.281 6.844-0.469 1.453 0.594 2.656 2.016 2.578 0.609-0.031 1-0.25 1.391-0.953 0.219-0.406 2.281-5.891 2.438-6.156 0.109-0.187 0.484-0.438 0.797-0.281 0.313 0.172 0.375 0.516 0.328 0.828-0.063 0.531-1.531 3.875-1.578 4.25-0.187 1.25 1.469 1.453 2.109 0.219 0.203-0.391 2.5-5.063 2.703-5.375 0.234-0.344 0.406-0.453 0.641-0.438 0.172 0 0.453 0.047 0.391 0.594-0.078 0.516-1.922 3.953-2.125 4.797-0.25 1.125 0.359 2.266 1.359 2.766 0.625 0.313 3.422 0.859 3.203-0.609zM5.984 22.656c0.063 0.313-0.125 0.609-0.438 0.672-0.297 0.063-0.594-0.125-0.656-0.438-0.063-0.297 0.125-0.609 0.422-0.672s0.609 0.125 0.672 0.438zM14.891 26.766c0.25 0.359 0.156 0.844-0.187 1.094-0.359 0.25-0.844 0.156-1.094-0.203-0.234-0.359-0.141-0.844 0.203-1.094 0.359-0.25 0.844-0.156 1.078 0.203zM2.766 14.078c-0.375 0.562-1.125 0.703-1.672 0.313-0.547-0.375-0.688-1.141-0.313-1.687 0.375-0.562 1.125-0.703 1.672-0.328 0.547 0.391 0.688 1.141 0.313 1.703zM22.922 24.656c0.391 0.578 0.25 1.375-0.328 1.781-0.578 0.391-1.359 0.25-1.75-0.328s-0.25-1.375 0.313-1.781c0.578-0.406 1.359-0.25 1.766 0.328zM24.672 15.219c1.437 2.359 0.828 5.469-1.437 7.063-0.953 0.672-2.031 0.969-3.109 0.938-0.656 2.578-3.797 3.531-5.75 1.781-0.063 0.047-0.141 0.094-0.203 0.156-2.141 1.484-5.047 0.953-6.531-1.219-0.531-0.781-0.797-1.672-0.828-2.562-3.578-0.594-4.922-5.141-2.25-7.641-1.547-2.562 0.031-5.875 2.922-6.281 1.375-3.625 5.891-5.344 8.953-2.969 3.687-1.219 7.453 1.609 7.156 5.531 2.25 0.688 2.891 3.656 1.078 5.203zM7.109 4.906c0.281 0.422 0.187 1-0.234 1.297-0.406 0.281-0.984 0.187-1.266-0.234s-0.187-1 0.234-1.297c0.406-0.281 0.984-0.187 1.266 0.234zM9.594 0.516c0.078 0.344-0.141 0.688-0.484 0.766s-0.688-0.141-0.766-0.5c-0.063-0.344 0.156-0.688 0.5-0.766s0.688 0.141 0.75 0.5zM28.125 15.328c0.094 0.422-0.172 0.828-0.578 0.906-0.406 0.094-0.812-0.172-0.891-0.578-0.094-0.422 0.172-0.828 0.578-0.922 0.406-0.078 0.812 0.187 0.891 0.594zM17.75 1.375c0.328 0.562 0.156 1.312-0.422 1.656-0.562 0.344-1.297 0.156-1.625-0.406-0.344-0.578-0.156-1.328 0.406-1.672s1.297-0.156 1.641 0.422zM29.406 11.625c0.078 0.313-0.125 0.609-0.422 0.688-0.313 0.063-0.609-0.141-0.672-0.438-0.063-0.313 0.125-0.625 0.438-0.688 0.297-0.063 0.594 0.125 0.656 0.438zM26.422 7.859c0.313 0.469 0.203 1.109-0.25 1.437-0.469 0.313-1.109 0.203-1.422-0.266s-0.203-1.109 0.266-1.437c0.453-0.328 1.094-0.203 1.406 0.266z"></path>
  </symbol>
</svg>